PathFileType	4	(X/Y/Z)	Patient4_TMGait_0pt6_02_left_16.trc.trc
DataRate	CameraRate	NumFrames	NumMarkers	Units	OrigDataRate	OrigDataStartFrame	OrigNumFrames
80.459770114943	80.459770114943	5	33	mm	80.459770114943	36	       141
Frame#	Time	Sacral			L.Shoulder			Chest			R.Shoulder			Neck			R.ASIS			L.ASIS			R.Thigh.Superior			R.Thigh.Lateral			R.Thigh.Inferior			R.Patella			L.Thigh.Superior			L.Thigh.Lateral			L.Thigh.Inferior			L.Patella			L.Shank.Superior			L.Shank.Lateral			L.Shank.Inferior			R.Shank.Superior			R.Shank.Lateral			R.Shank.Inferior			R.Heel			R.Midfoot.Superior			R.Midfoot.Lateral			R.Toe			L.Heel			L.Midfoot.Lateral			L.Midfoot.Superior			L.Toe			L.Elbow			L.Wrist			R.Elbow			R.Wrist			
		X1	Y1	Z1	X2	Y2	Z2	X3	Y3	Z3	X4	Y4	Z4	X5	Y5	Z5	X6	Y6	Z6	X7	Y7	Z7	X8	Y8	Z8	X9	Y9	Z9	X10	Y10	Z10	X11	Y11	Z11	X12	Y12	Z12	X13	Y13	Z13	X14	Y14	Z14	X15	Y15	Z15	X16	Y16	Z16	X17	Y17	Z17	X18	Y18	Z18	X19	Y19	Z19	X20	Y20	Z20	X21	Y21	Z21	X22	Y22	Z22	X23	Y23	Z23	X24	Y24	Z24	X25	Y25	Z25	X26	Y26	Z26	X27	Y27	Z27	X28	Y28	Z28	X29	Y29	Z29	X30	Y30	Z30	X31	Y31	Z31	X32	Y32	Z32	X33	Y33	Z33	

36	20.075000000000	843.943081841134	1006.133107714711	464.369177303330	998.454412538235	1424.803255249702	258.372111127851	1120.245291969555	1360.837614064983	407.041922912873	1057.668288760167	1443.800897418180	584.977942377217	1011.514245264224	1489.934814657991	406.439572106104	1074.125788475372	934.005768057728	560.078245569657	1043.430257797090	955.961954105843	288.687296030585	1101.949130403413	725.643202446508	533.839296482797	1019.650672657945	618.527169116804	600.723486478205	1092.525715692270	558.304637090819	520.583453005779	1079.922348372570	449.777786634267	537.550171247707	1113.044311163493	764.006858126332	316.017891423772	1036.735279382930	638.892201824579	258.880835719038	1135.024323237859	572.061109931954	315.773633284941	1144.178354941568	502.316088019040	323.106844102765	1125.079629282030	428.385088692844	316.464845843573	1045.429287395794	304.062532951023	272.388894879535	1117.465380461305	200.241942574125	338.314673975737	1003.691995125149	384.025392438875	543.796189826503	887.219100279057	338.082890489075	607.749022159510	873.321596769402	232.014622308175	553.024639543930	670.824634804998	149.908381696535	531.052143952615	847.992976482550	121.822178529121	565.666562383097	742.013113765072	106.076657477451	603.920473231094	929.982267043007	33.450835445858	593.724515708233	1008.182728717673	38.366902103930	387.786829896666	1080.653445266196	35.278064579811	305.373262971490	1162.445654668288	99.122569267093	329.020797506785	1291.280111653346	50.246048758308	301.114190140866	898.928688830054	1077.122261791204	169.941380340422	916.075279852343	817.447564046188	168.324929172822	1148.358307519947	1111.056346068864	700.083206510888	1354.457183509775	1153.126245354029	566.897744854831	
37	20.087428571429	843.234721486772	1007.232756500440	461.550893611255	999.884857200803	1425.530091261393	255.707114128441	1120.401810049949	1361.750344969412	405.461723466173	1056.623101599411	1445.240560169110	582.682941464421	1011.793029747867	1490.956621804063	403.652764752252	1072.871836032583	935.194874784829	558.825277923251	1043.737548095671	956.982793967698	287.279949911329	1106.773042272140	729.161650359055	532.545999594700	1027.728919746015	619.842982349154	599.208156720709	1103.333805882285	561.296055414657	519.706169643570	1092.355584300356	451.271572897407	537.187433654910	1111.427423456291	763.264358681114	313.091894680562	1033.059737384795	639.044445111583	257.554286745578	1130.756878742173	571.294918003331	314.201195410024	1139.168020451743	501.817997637877	322.005477939432	1119.738395883315	428.066441766389	315.495713469785	1039.366247242082	304.132638618028	271.636136955903	1110.654920061654	200.071971512396	337.909650275217	1014.038832436922	386.314478162888	542.751257026321	895.215560232138	344.640661410988	605.488494612022	878.681319485226	238.709218694934	551.528607479333	673.884363370163	165.043131478440	527.575341864072	849.410145380411	128.269959414201	564.490309434885	742.053515899361	118.264034404323	601.652759279680	926.241193621257	34.635438259407	594.384402414295	1000.711021794399	38.325700186278	387.648160240156	1073.161933853857	35.212397265225	305.210293361831	1154.909278823875	99.150120986090	328.815523778705	1283.778808489105	50.396625799122	300.947516260375	904.840976728564	1076.562674777572	165.591626844835	930.216709671109	817.446037282744	163.439232106584	1137.536381031340	1109.972558783491	699.177774875701	1348.430833964009	1136.029646930136	568.381479690276	
38	20.099857142857	842.349638788009	1008.137235288885	458.776376988746	1001.343911476422	1426.116913230552	253.158614276783	1120.439015764655	1362.546101080066	404.120127858593	1055.251690756446	1446.481551615149	580.608196323340	1011.950364065071	1491.853311606491	401.021609189577	1071.533978481268	936.291226055495	557.774861781723	1043.953864173144	957.894582353957	286.070790611794	1111.546296977527	732.921429850273	531.399611363390	1035.838068363046	621.512597917399	597.794028173869	1114.061355192837	564.785459871307	518.881286363911	1104.895686463770	453.421866343902	536.649413038683	1109.570135434069	762.340900883171	310.503576270189	1029.410445104567	639.112147625101	256.330394688944	1126.379550162983	570.478733288807	312.980471722055	1134.005667409008	501.240453112563	321.172905416880	1114.298516174251	427.688383397100	314.732151309633	1033.323341198785	304.115691856673	270.980549894869	1103.828168393266	199.841761849946	337.641959754079	1024.760363675922	389.021747908282	541.625123124321	903.866385717572	351.345583685307	603.189527602495	884.844875894946	245.644617250434	549.923222201344	678.270259918150	179.761170509407	523.905747958423	851.901604203199	135.247989940227	563.229037003313	743.463023695448	130.535557488766	599.254294111099	923.920311712295	36.725020323546	595.146622124463	993.199492635394	38.284709969005	387.541504358581	1065.630979903181	35.130502740340	305.088806854100	1147.404322686912	99.069555048235	328.695525663469	1276.280926073768	50.314258781159	300.820729478035	911.000207473314	1075.941093312440	161.222073526183	944.786214326098	817.628344976594	158.612355744418	1126.429993681329	1108.932296841749	698.233179396392	1341.407497875500	1118.080731848662	570.557233454988	
39	20.112285714286	841.307175538235	1008.858153838448	456.069453785171	1002.797457909049	1426.582359934880	250.764548216212	1120.360931272858	1363.222137017239	403.013521920158	1053.605300491974	1447.509066403284	578.769435314777	1012.006000715751	1492.630630937200	398.586120450203	1070.138292208386	937.306269691872	556.862671475920	1044.072077868641	958.699817114669	285.001986328783	1116.145311278909	736.889654824702	530.293587058629	1043.891624091105	623.551726607672	596.451728340901	1124.520075023300	568.768935404446	518.009259935660	1117.394251985124	456.224258704450	535.906601879860	1107.564059400290	761.337978371659	308.342454863836	1025.934057175858	639.141545110282	255.196871393898	1122.017855486388	569.655783563828	312.107093459687	1128.821270331384	500.608656618705	320.607363040969	1108.875897795550	427.266114551175	314.176703832818	1027.400013681835	304.044485798687	270.402074992670	1097.043086685092	199.562909216264	337.507856046862	1035.728282194088	392.132564997707	540.430341749432	913.070597913364	358.068953224389	600.920457687109	891.795053900878	252.648919807366	548.281151350948	683.935306079893	193.624613402226	520.244758949004	855.566914840216	142.514450621704	561.939221940043	746.337032543475	142.458373306193	596.835926912095	923.274734930503	39.716982403370	595.896726900696	985.666276580037	38.251775455508	387.456499839430	1058.081598150031	35.048281258123	305.000638495988	1139.941691640048	98.903056981458	328.656732832974	1268.801041062189	50.034198509596	300.731819713837	917.439582057230	1075.275675948734	156.883184904779	959.686853271229	818.018133627298	153.866221826715	1115.139400746264	1107.910730946976	697.289651039422	1333.271214099591	1099.359972918766	573.494951744616	
40	20.124714285714	840.130081723572	1009.431282232688	453.444132297863	1004.207590248820	1426.967540972903	248.563726377283	1120.172847841318	1363.790843287481	402.131059074358	1051.748144865061	1448.327432002824	577.173128435998	1011.981985229887	1493.308420302811	396.383978095564	1068.700732504557	938.266721572973	556.021978851529	1044.092443527534	959.409444685060	284.016624970178	1120.465740531977	741.041247067339	529.122954358592	1051.823776114077	625.968481298999	595.154117222978	1134.564627636780	573.229809191276	517.003628035698	1129.730643530319	459.658518157513	534.947442235911	1105.506335743994	760.344552152052	306.651020086134	1022.720778501699	639.166150483239	254.150437588213	1117.764919136864	568.852729887436	311.551200696702	1123.719989574127	499.944111078534	320.295959514754	1103.558590089167	426.814504502232	313.822592262512	1021.659205335341	303.950750185072	269.890586694915	1090.340297864693	199.249232816045	337.496789556389	1046.840861946819	395.623045944778	539.182663352073	922.747043152734	364.672586114949	598.752847086601	899.525935288165	259.539535753729	546.674361708569	690.815536081471	206.253729107117	516.809411833291	860.501861050838	149.787927360836	560.670198499406	750.746452245300	153.610674268239	594.516264893236	924.524169481018	43.477415233691	596.493748211495	978.126296370978	38.232700877884	387.384689390398	1050.530740904643	34.978998366257	304.938342369401	1132.523319282989	98.677418422773	328.689602857051	1261.346742712017	49.604707770782	300.674484950173	924.177258723218	1074.609319591153	152.632232853647	974.826748274192	818.659012927519	149.229557681017	1103.757287802656	1106.907934126283	696.392314375094	1323.908617765107	1079.957502034574	577.260502403301	
